<svg width="463" height="518" viewBox="0 0 463 518" fill="none" xmlns="http://www.w3.org/2000/svg">
<path d="M204.036 7.12549C221.114 -2.37516 241.886 -2.37516 258.964 7.12549L259.787 7.59175L434.713 108.757C451.943 118.722 462.661 137.006 462.992 156.887L463 157.834V360.165C463 380.095 452.552 398.535 435.529 408.762L434.713 409.242L259.787 510.408C242.283 520.531 220.717 520.531 203.213 510.408L28.2871 409.242C10.7831 399.119 0.000130654 380.411 0 360.165V157.834L0.00828724 156.887C0.339148 137.006 11.0566 118.722 28.2871 108.757L203.213 7.59175L204.036 7.12549ZM259.787 120.158H203.213V56.6691L93.4345 120.158H92.8931V120.47L49.5025 145.565C45.1266 148.096 42.4309 152.773 42.4307 157.834V232.081H92.8931V288.752H42.4307V360.165C42.4308 365.226 45.1266 369.904 49.5025 372.434L92.8931 397.528V397.842H93.4359L203.213 461.329V397.842H259.787V461.329L369.564 397.842H370.107V397.528L413.498 372.434C417.873 369.904 420.569 365.226 420.569 360.165V288.752H370.107V232.081H420.569V157.834C420.569 152.773 417.873 148.096 413.498 145.565L370.107 120.47V120.158H369.565L259.787 56.6691V120.158ZM259.787 176.828V232.081H313.533V288.752H259.787V341.172H203.213V288.752H149.467V232.081H203.213V176.828H259.787Z" fill="white"/>
</svg>
