<svg width="1200" height="800" viewBox="0 0 1200 800" fill="none" xmlns="http://www.w3.org/2000/svg" role="img" aria-label="Aeterna dashboard preview placeholder">
  <defs>
    <linearGradient id="bg" x1="0" y1="0" x2="1200" y2="800" gradientUnits="userSpaceOnUse">
      <stop stop-color="#f0fdfa"/>
      <stop offset="1" stop-color="#ccfbf1"/>
    </linearGradient>
  </defs>
  <rect width="1200" height="800" rx="16" fill="url(#bg)"/>
  <!-- window chrome -->
  <rect x="40" y="40" width="1120" height="56" rx="10" fill="#ffffff"/>
  <circle cx="72" cy="68" r="7" fill="#e2e8f0"/>
  <circle cx="96" cy="68" r="7" fill="#e2e8f0"/>
  <circle cx="120" cy="68" r="7" fill="#e2e8f0"/>
  <rect x="180" y="56" width="640" height="24" rx="12" fill="#f1f5f9"/>
  <!-- sidebar -->
  <rect x="40" y="112" width="220" height="648" rx="12" fill="#0d9488"/>
  <rect x="64" y="148" width="172" height="14" rx="7" fill="#ffffff" opacity="0.9"/>
  <rect x="64" y="200" width="140" height="12" rx="6" fill="#ffffff" opacity="0.55"/>
  <rect x="64" y="236" width="160" height="12" rx="6" fill="#ffffff" opacity="0.55"/>
  <rect x="64" y="272" width="120" height="12" rx="6" fill="#ffffff" opacity="0.55"/>
  <rect x="64" y="308" width="150" height="12" rx="6" fill="#ffffff" opacity="0.55"/>
  <rect x="64" y="344" width="110" height="12" rx="6" fill="#ffffff" opacity="0.55"/>
  <!-- main cards -->
  <rect x="284" y="112" width="270" height="120" rx="12" fill="#ffffff"/>
  <rect x="308" y="140" width="90" height="12" rx="6" fill="#cbd5e1"/>
  <rect x="308" y="168" width="140" height="28" rx="6" fill="#0d9488"/>
  <rect x="578" y="112" width="270" height="120" rx="12" fill="#ffffff"/>
  <rect x="602" y="140" width="90" height="12" rx="6" fill="#cbd5e1"/>
  <rect x="602" y="168" width="120" height="28" rx="6" fill="#115e59"/>
  <rect x="872" y="112" width="288" height="120" rx="12" fill="#ffffff"/>
  <rect x="896" y="140" width="90" height="12" rx="6" fill="#cbd5e1"/>
  <rect x="896" y="168" width="150" height="28" rx="6" fill="#14b8a6"/>
  <!-- big chart -->
  <rect x="284" y="256" width="564" height="504" rx="12" fill="#ffffff"/>
  <rect x="312" y="288" width="160" height="14" rx="7" fill="#94a3b8"/>
  <polyline points="312,640 400,560 488,600 576,470 664,520 752,400 820,440" fill="none" stroke="#0d9488" stroke-width="6" stroke-linecap="round" stroke-linejoin="round"/>
  <polyline points="312,690 400,650 488,670 576,600 664,640 752,560 820,590" fill="none" stroke="#5eead4" stroke-width="6" stroke-linecap="round" stroke-linejoin="round"/>
  <!-- side list -->
  <rect x="872" y="256" width="288" height="504" rx="12" fill="#ffffff"/>
  <rect x="896" y="288" width="120" height="14" rx="7" fill="#94a3b8"/>
  <rect x="896" y="332" width="240" height="40" rx="8" fill="#f1f5f9"/>
  <rect x="896" y="384" width="240" height="40" rx="8" fill="#f1f5f9"/>
  <rect x="896" y="436" width="240" height="40" rx="8" fill="#f1f5f9"/>
  <rect x="896" y="488" width="240" height="40" rx="8" fill="#f1f5f9"/>
  <rect x="896" y="540" width="240" height="40" rx="8" fill="#f1f5f9"/>
  <text x="600" y="786" text-anchor="middle" font-family="system-ui, sans-serif" font-size="15" fill="#0f766e" opacity="0.7">Dashboard preview placeholder — replace with product video/animation</text>
</svg>
